<?xml version="1.0" encoding="utf-8"?>
<!-- Generator: Adobe Illustrator 24.0.3, SVG Export Plug-In . SVG Version: 6.00 Build 0)  -->
<svg version="1.1" id="Layer_1" xmlns="http://www.w3.org/2000/svg" xmlns:xlink="http://www.w3.org/1999/xlink" x="0px" y="0px"
	 viewBox="0 0 288 83.5" style="enable-background:new 0 0 288 83.5;" xml:space="preserve">
<style type="text/css">
	.st0{fill:#E40B18;}
	.st1{fill:#EC555E;}
	.st2{fill:#EF6B73;}
	.st3{fill:#ED5B63;}
	.st4{fill:#EB4E57;}
	.st5{fill:#E40B17;}
	.st6{fill:#E50C19;}
	.st7{fill:#E50D19;}
	.st8{fill:#E50D1A;}
</style>
<g>
	<g>
		<path class="st0" d="M70.5,0.5c0.7,0.8,1.8,0.7,2.7,0.9C80,3.1,84.9,8,85.6,15.3c0.2,2,0.3,4,0.3,6c0,11.1-0.1,22.2-0.1,33.2
			c0,2.3-0.2,4.5-0.6,6.7c-1.1,5.8-4.5,9.9-9.8,12.3c-5.8,2.6-11.8,3.3-18,2c-5.9-1.3-9-5.2-10.3-10.9c-0.5-2.2-0.6-4.4-0.6-6.7
			c0-12.5,0-25,0.1-37.5c0-3.9,0.4-7.8,2.4-11.3c2.2-3.8,5.3-6.3,9.6-7.5C59.7,1.3,61,1.3,62,0.5c1,0,2,0,3,0c0.8,0.8,1.7,0.8,2.5,0
			C68.5,0.5,69.5,0.5,70.5,0.5z M59.4,37.9c-0.1,0-0.2,0-0.2,0c0,6.5,0,13,0,19.5c0,1.8,0.1,3.5,0.8,5.1c0.5,1.3,1.3,2.4,2.7,2.7
			c5.3,1.1,10-0.3,10.2-7c0-0.2,0-0.3,0-0.5c0-12.8,0.1-25.6,0.1-38.5c0-1.1,0-2.1-0.3-3.2c-0.7-3.3-2.6-4.9-6-5.1
			c-3.1-0.2-6.1,1.3-6.9,4.5c-0.3,1.2-0.3,2.5-0.3,3.7C59.4,25.4,59.4,31.7,59.4,37.9z"/>
		<path class="st1" d="M0.5,2C0.7,2,0.8,2,1,1.9c0,13.2,0,26.4,0,39.6c-0.2,0-0.3,0-0.5,0C0.5,28.3,0.5,15.2,0.5,2z"/>
		<path class="st2" d="M1,83.5c0,0.2,0,0.3,0,0.5c-1,0.1-0.5-0.7-0.5-1c0-8.5,0-17,0-25.5c0.1,0,0.3,0,0.4,0C1,66.2,1,74.8,1,83.5z"
			/>
		<path class="st3" d="M0.9,57.5c-0.1,0-0.3,0-0.4,0c0-5.3,0-10.7,0-16c0.2,0,0.3,0,0.5,0C1,46.8,1,52.2,0.9,57.5z"/>
		<path class="st4" d="M67.5,0.5c-0.8,0.8-1.7,0.8-2.5,0C65.8,0.5,66.7,0.5,67.5,0.5z"/>
		<path class="st5" d="M0.9,57.5c0-5.3,0-10.7,0-16C1,28.3,1,15.1,1,1.9c4.1,0,8.1,0,12.5,0c0,10.9,0,21.8,0,32.7
			c0.2,0.5,0.4,0.5,0.6,0c5.1-10.5,10.2-20.9,15.3-31.4c0.3-0.7,0.6-1.4,1.5-1.4c3.8,0,7.6,0,11.4,0c0.3,1-0.3,1.5-0.6,2
			c-4.3,8-8.7,16.1-13.1,24c-0.9,1.7-1,3.1-0.4,4.9c4.6,13.7,9.1,27.5,13.6,41.2c0.3,1,0.8,2,0.9,3.4c-4.3,0.8-8.6,1.2-13.2,1.6
			C26,68,22.4,57.1,18.8,45.9c-1.1,0.9-1.3,2.2-1.9,3.1c-3,4.6-3.9,9.5-3.5,14.9c0.3,5,0.1,10,0.1,15c0,0.8,0.1,1.7-0.2,2.6
			c-4,0.8-8.1,1.5-12.2,2C1,74.8,1,66.2,0.9,57.5z"/>
		<path class="st6" d="M94.6,72.9c0.1-23.8,0-47.4,0.3-70.9c0.3-0.1,0.6-0.2,0.8-0.2c7.4,0.1,14.8-0.3,22.2,0.3
			c4.8,0.4,9.1,1.8,12.4,5.6c1.8,2.2,2.8,4.7,3.2,7.5c0.2,1.8,0.3,3.7,0.3,5.5c0,10.7,0,21.5,0,32.2c0,2.8-0.2,5.6-1.1,8.4
			c-1.3,4.1-4,6.8-7.8,8.6c-3.2,1.5-6.7,2.1-10.2,2.2c-6.2,0.2-12.3,0.4-18.5,0.9C95.8,72.9,95.3,72.9,94.6,72.9z M107.8,11.6
			c0,16.9,0,33.6,0,50.4c2.3,0,4.6,0.1,6.8,0c3.3-0.2,5.7-1.9,6-5.4c0.1-1.1,0.2-2.1,0.2-3.2c0-11.5,0-23,0-34.5c0-0.5,0-1,0-1.5
			c-0.3-3.4-1.6-4.8-5-5.5C113.4,11.3,110.8,11.7,107.8,11.6z"/>
		<path class="st7" d="M243.9,1.7c4.6,0,8.9,0,13.5,0c2.9,8.4,5.8,16.8,8.7,25.1c0.1,0,0.3,0,0.4,0.1c3-8.4,6-16.8,9-25.2
			c4,0,7.9,0,12,0c-1.4,3.8-2.6,7.3-4,10.9c-3.1,8.5-6.3,17-9.5,25.5c-0.6,1.7-0.6,3.1,0,4.8c4.4,12.5,8.8,25.1,13.2,37.7
			c0.3,0.8,0.8,1.6,0.6,2.8c-4.3-0.7-8.5-1.3-12.9-2c-3.2-9.6-6.4-19.2-9.7-29.3c-3.4,9.2-6.6,17.8-9.9,26.5c-4-0.5-7.8-1-11.8-1.5
			c0-1,0.5-1.7,0.7-2.5c4.4-11,8.7-22.1,13.1-33.1c0.6-1.4,0.5-2.6,0-4c-4.4-11.5-8.8-23-13.1-34.5C244.2,2.7,244.2,2.3,243.9,1.7z"
			/>
		<path class="st8" d="M142.8,1.6c11.5,0,22.7,0,34.1,0c0,3.3,0,6.5,0,9.8c-7.1,0-14,0-21.1,0c0,6.5,0,12.9,0,19.5
			c5.4,0,10.9,0,16.7,0c0.1,3.4,0,6.6,0,10c-5.6,0-11.1,0-16.8,0c0,10.2,0,20.2,0,30.3c-4.3,0-8.5,0-12.8,0
			C142.8,48.1,142.8,24.9,142.8,1.6z"/>
		<path class="st0" d="M217.8,64.2c0,3.3,0,6.4,0,9.5c0,0.2-0.1,0.5-0.2,0.9c-11.3-0.8-22.5-1.6-34-2.2c0-23.6,0-47.1,0-70.7
			c4.1,0,8.1,0,12.4,0c0.4,20.3,0.3,40.6,0.4,61.1C203.5,63.2,210.6,63.7,217.8,64.2z"/>
		<path class="st7" d="M224.3,1.7c4.1,0,8.3,0,12.6,0c0,24.9,0,49.7,0,74.7c-4.2-0.4-8.3-0.8-12.6-1.2
			C224.3,50.7,224.3,26.3,224.3,1.7z"/>
		<path class="st1" d="M14.1,34.7c-0.2,0.4-0.4,0.4-0.6,0C13.7,34.6,13.9,34.6,14.1,34.7z"/>
	</g>
</g>
</svg>
